<svg width="2467" height="545" viewBox="0 0 2467 545" fill="none" xmlns="http://www.w3.org/2000/svg">
<path d="M0 544.164V535.944L20.55 528.546C31.51 524.162 40.004 518.956 46.032 512.928C52.06 506.352 56.992 497.31 60.828 485.802L230.16 0H300.03L466.896 489.09C471.28 501.146 476.212 510.462 481.692 517.038C487.172 523.066 495.666 528.272 507.174 532.656L517.038 535.944V544.164H308.25V535.944L320.58 531.834C332.088 527.45 338.938 521.422 341.13 513.75C343.87 505.53 343.596 495.94 340.308 484.98L301.674 366.612H119.19L79.734 482.514C75.898 494.57 74.528 504.16 75.624 511.284C77.268 518.408 83.844 524.162 95.352 528.546L113.436 535.944V544.164H0ZM124.944 350.172H296.742L213.72 94.53L124.944 350.172Z" fill="#333333" fill-opacity="0.05"/>
<path d="M575.798 544.164V535.944L593.06 530.19C604.02 526.354 611.144 521.422 614.432 515.394C617.72 508.818 619.364 499.776 619.364 488.268V58.3621C619.364 47.4021 617.72 38.9081 614.432 32.88C611.692 26.3041 605.116 21.098 594.704 17.262L575.798 9.86404V1.64404H810.89C875.554 1.64404 925.148 13.9741 959.672 38.6341C994.196 62.746 1011.46 96.448 1011.46 139.74C1011.46 163.852 1002.42 187.964 984.332 212.076C966.248 236.188 937.752 254.82 898.844 267.972L1013.1 494.844C1018.03 504.16 1023.51 511.832 1029.54 517.86C1036.12 523.34 1044.61 528.272 1055.02 532.656L1065.71 536.766V544.164H918.572L796.916 285.234H741.02V488.268C741.02 498.68 742.664 507.174 745.952 513.75C749.24 520.326 756.09 525.258 766.502 528.546L786.23 535.944V544.164H575.798ZM741.02 268.794H780.476C819.932 268.794 848.428 258.382 865.964 237.558C883.5 216.186 892.268 184.676 892.268 143.028C892.268 100.832 884.048 69.596 867.608 49.32C851.168 28.496 823.494 18.084 784.586 18.084H741.02V268.794Z" fill="#333333" fill-opacity="0.05"/>
<path d="M1234.98 544.164V535.944L1268.69 527.724C1291.15 522.792 1302.39 509.092 1302.39 486.624V18.084H1232.52C1212.24 18.084 1197.72 23.564 1188.95 34.524C1180.18 44.936 1170.87 59.458 1161 78.09L1131.41 135.63H1123.19L1127.3 1.64404H1601.6L1604.88 135.63H1596.66L1567.07 78.09C1557.76 59.458 1548.71 44.936 1539.95 34.524C1531.18 23.564 1516.66 18.084 1496.38 18.084H1426.51V486.624C1426.51 509.092 1437.74 522.792 1460.21 527.724L1493.91 535.944V544.164H1234.98Z" fill="#333333" fill-opacity="0.05"/>
</svg>
