<svg width="256" height="256" viewBox="0 0 256 256" fill="none" xmlns="http://www.w3.org/2000/svg">
<rect width="256" height="256" rx="120" fill="#BFA054"/>
<path d="M46 213V210.417L52.492 208.092C55.9543 206.715 58.6377 205.079 60.542 203.184C62.4463 201.118 64.0044 198.276 65.2162 194.66L118.71 42H140.783L193.497 195.693C194.882 199.482 196.44 202.409 198.172 204.476C199.903 206.37 202.586 208.006 206.222 209.384L209.338 210.417V213H143.379V210.417L147.275 209.125C150.91 207.748 153.074 205.853 153.767 203.443C154.632 200.86 154.546 197.846 153.507 194.402L141.302 157.205H83.6534L71.1888 193.627C69.977 197.415 69.5442 200.429 69.8904 202.668C70.4098 204.906 72.4872 206.715 76.1227 208.092L81.8356 210.417V213H46ZM85.4711 152.039H139.744L113.516 71.7054L85.4711 152.039Z" fill="#424242"/>
</svg>
